<svg width="800" height="600" viewBox="0 0 800 600" xmlns="http://www.w3.org/2000/svg">
  <defs>
    <radialGradient id="hallBg" cx="50%" cy="30%" r="70%">
      <stop offset="0%" style="stop-color:#1a1f2e;stop-opacity:1" />
      <stop offset="100%" style="stop-color:#0a0e1a;stop-opacity:1" />
    </radialGradient>
    <linearGradient id="bookSpine" x1="0%" y1="0%" x2="100%" y2="100%">
      <stop offset="0%" style="stop-color:#8B4513;stop-opacity:1" />
      <stop offset="100%" style="stop-color:#654321;stop-opacity:1" />
    </linearGradient>
    <linearGradient id="shelf" x1="0%" y1="0%" x2="100%" y2="100%">
      <stop offset="0%" style="stop-color:#4a4a4a;stop-opacity:1" />
      <stop offset="100%" style="stop-color:#2a2a2a;stop-opacity:1" />
    </linearGradient>
  </defs>
  
  <!-- Background -->
  <rect width="800" height="600" fill="url(#hallBg)"/>
  
  <!-- Floor -->
  <polygon points="0,500 800,500 800,600 0,600" fill="#2a2a2a"/>
  
  <!-- Back Wall -->
  <rect x="0" y="0" width="800" height="500" fill="#1a1a1a"/>
  
  <!-- Library Shelves -->
  <!-- Shelf 1 - History -->
  <rect x="50" y="350" width="80" height="120" fill="url(#shelf)"/>
  <rect x="55" y="355" width="8" height="25" fill="#8B4513"/>
  <rect x="65" y="355" width="8" height="28" fill="#654321"/>
  <rect x="75" y="355" width="8" height="22" fill="#8B4513"/>
  <rect x="85" y="355" width="8" height="26" fill="#654321"/>
  <rect x="95" y="355" width="8" height="24" fill="#8B4513"/>
  <rect x="105" y="355" width="8" height="27" fill="#654321"/>
  <rect x="115" y="355" width="8" height="23" fill="#8B4513"/>
  
  <!-- Shelf 2 - Religion -->
  <rect x="150" y="350" width="80" height="120" fill="url(#shelf)"/>
  <rect x="155" y="355" width="8" height="25" fill="#4B0082"/>
  <rect x="165" y="355" width="8" height="28" fill="#301934"/>
  <rect x="175" y="355" width="8" height="22" fill="#4B0082"/>
  <rect x="185" y="355" width="8" height="26" fill="#301934"/>
  <rect x="195" y="355" width="8" height="24" fill="#4B0082"/>
  <rect x="205" y="355" width="8" height="27" fill="#301934"/>
  <rect x="215" y="355" width="8" height="23" fill="#4B0082"/>
  
  <!-- Shelf 3 - Philosophy -->
  <rect x="250" y="350" width="80" height="120" fill="url(#shelf)"/>
  <rect x="255" y="355" width="8" height="25" fill="#2E8B57"/>
  <rect x="265" y="355" width="8" height="28" fill="#1a5a37"/>
  <rect x="275" y="355" width="8" height="22" fill="#2E8B57"/>
  <rect x="285" y="355" width="8" height="26" fill="#1a5a37"/>
  <rect x="295" y="355" width="8" height="24" fill="#2E8B57"/>
  <rect x="305" y="355" width="8" height="27" fill="#1a5a37"/>
  <rect x="315" y="355" width="8" height="23" fill="#2E8B57"/>
  
  <!-- Shelf 4 - Science -->
  <rect x="350" y="350" width="80" height="120" fill="url(#shelf)"/>
  <rect x="355" y="355" width="8" height="25" fill="#1E90FF"/>
  <rect x="365" y="355" width="8" height="28" fill="#1a5a87"/>
  <rect x="375" y="355" width="8" height="22" fill="#1E90FF"/>
  <rect x="385" y="355" width="8" height="26" fill="#1a5a87"/>
  <rect x="395" y="355" width="8" height="24" fill="#1E90FF"/>
  <rect x="405" y="355" width="8" height="27" fill="#1a5a87"/>
  <rect x="415" y="355" width="8" height="23" fill="#1E90FF"/>
  
  <!-- Shelf 5 - AI -->
  <rect x="450" y="350" width="80" height="120" fill="url(#shelf)"/>
  <rect x="455" y="355" width="8" height="25" fill="#FF6347"/>
  <rect x="465" y="355" width="8" height="28" fill="#cc4a2a"/>
  <rect x="475" y="355" width="8" height="22" fill="#FF6347"/>
  <rect x="485" y="355" width="8" height="26" fill="#cc4a2a"/>
  <rect x="495" y="355" width="8" height="24" fill="#FF6347"/>
  <rect x="505" y="355" width="8" height="27" fill="#cc4a2a"/>
  <rect x="515" y="355" width="8" height="23" fill="#FF6347"/>
  
  <!-- Shelf 6 - Technology -->
  <rect x="550" y="350" width="80" height="120" fill="url(#shelf)"/>
  <rect x="555" y="355" width="8" height="25" fill="#32CD32"/>
  <rect x="565" y="355" width="8" height="28" fill="#28a428"/>
  <rect x="575" y="355" width="8" height="22" fill="#32CD32"/>
  <rect x="585" y="355" width="8" height="26" fill="#28a428"/>
  <rect x="595" y="355" width="8" height="24" fill="#32CD32"/>
  <rect x="605" y="355" width="8" height="27" fill="#28a428"/>
  <rect x="615" y="355" width="8" height="23" fill="#32CD32"/>
  
  <!-- Shelf 7 - Literature -->
  <rect x="650" y="350" width="80" height="120" fill="url(#shelf)"/>
  <rect x="655" y="355" width="8" height="25" fill="#FFD700"/>
  <rect x="665" y="355" width="8" height="28" fill="#ccaa00"/>
  <rect x="675" y="355" width="8" height="22" fill="#FFD700"/>
  <rect x="685" y="355" width="8" height="26" fill="#ccaa00"/>
  <rect x="695" y="355" width="8" height="24" fill="#FFD700"/>
  <rect x="705" y="355" width="8" height="27" fill="#ccaa00"/>
  <rect x="715" y="355" width="8" height="23" fill="#FFD700"/>
  
  <!-- Ambient Lighting -->
  <circle cx="400" cy="150" r="100" fill="none" stroke="#FFD700" stroke-width="1" opacity="0.1"/>
  <circle cx="400" cy="150" r="150" fill="none" stroke="#FFD700" stroke-width="1" opacity="0.05"/>
  
  <!-- Floating dust particles -->
  <circle cx="100" cy="200" r="1" fill="#ffffff" opacity="0.3"/>
  <circle cx="250" cy="180" r="1" fill="#ffffff" opacity="0.2"/>
  <circle cx="400" cy="220" r="1" fill="#ffffff" opacity="0.4"/>
  <circle cx="550" cy="190" r="1" fill="#ffffff" opacity="0.3"/>
  <circle cx="700" cy="210" r="1" fill="#ffffff" opacity="0.2"/>
  <circle cx="150" cy="300" r="1" fill="#ffffff" opacity="0.3"/>
  <circle cx="350" cy="280" r="1" fill="#ffffff" opacity="0.2"/>
  <circle cx="600" cy="320" r="1" fill="#ffffff" opacity="0.4"/>
</svg>
