<svg width="400" height="400" viewBox="0 0 400 400" xmlns="http://www.w3.org/2000/svg">
  <defs>
    <linearGradient id="floorGradient" x1="0%" y1="0%" x2="100%" y2="100%">
      <stop offset="0%" style="stop-color:#2a2a2a;stop-opacity:1" />
      <stop offset="100%" style="stop-color:#1a1a1a;stop-opacity:1" />
    </linearGradient>
    <linearGradient id="shelfGradient" x1="0%" y1="0%" x2="100%" y2="100%">
      <stop offset="0%" style="stop-color:#654321;stop-opacity:1" />
      <stop offset="100%" style="stop-color:#4A2C17;stop-opacity:1" />
    </linearGradient>
    <radialGradient id="godRayGradient" cx="50%" cy="50%" r="50%">
      <stop offset="0%" style="stop-color:#FFD700;stop-opacity:0.3" />
      <stop offset="100%" style="stop-color:#FFD700;stop-opacity:0" />
    </radialGradient>
  </defs>
  
  <!-- Background -->
  <rect width="400" height="400" fill="#1a1a2e"/>
  
  <!-- Floor -->
  <rect x="0" y="300" width="400" height="100" fill="url(#floorGradient)"/>
  
  <!-- Bookshelves -->
  <rect x="50" y="100" width="300" height="200" fill="url(#shelfGradient)" rx="5"/>
  
  <!-- Books on shelf -->
  <rect x="70" y="120" width="15" height="20" fill="#DC143C" rx="2"/>
  <rect x="90" y="120" width="15" height="20" fill="#1E90FF" rx="2"/>
  <rect x="110" y="120" width="15" height="20" fill="#32CD32" rx="2"/>
  <rect x="130" y="120" width="15" height="20" fill="#FF6347" rx="2"/>
  <rect x="150" y="120" width="15" height="20" fill="#8B4513" rx="2"/>
  <rect x="170" y="120" width="15" height="20" fill="#4B0082" rx="2"/>
  <rect x="190" y="120" width="15" height="20" fill="#2E8B57" rx="2"/>
  <rect x="210" y="120" width="15" height="20" fill="#FF1493" rx="2"/>
  <rect x="230" y="120" width="15" height="20" fill="#00CED1" rx="2"/>
  <rect x="250" y="120" width="15" height="20" fill="#FF8C00" rx="2"/>
  <rect x="270" y="120" width="15" height="20" fill="#9370DB" rx="2"/>
  <rect x="290" y="120" width="15" height="20" fill="#20B2AA" rx="2"/>
  <rect x="310" y="120" width="15" height="20" fill="#FF69B4" rx="2"/>
  
  <rect x="70" y="150" width="15" height="20" fill="#B22222" rx="2"/>
  <rect x="90" y="150" width="15" height="20" fill="#4169E1" rx="2"/>
  <rect x="110" y="150" width="15" height="20" fill="#228B22" rx="2"/>
  <rect x="130" y="150" width="15" height="20" fill="#CD5C5C" rx="2"/>
  <rect x="150" y="150" width="15" height="20" fill="#A0522D" rx="2"/>
  <rect x="170" y="150" width="15" height="20" fill="#6A5ACD" rx="2"/>
  <rect x="190" y="150" width="15" height="20" fill="#3CB371" rx="2"/>
  <rect x="210" y="150" width="15" height="20" fill="#FFB6C1" rx="2"/>
  <rect x="230" y="150" width="15" height="20" fill="#40E0D0" rx="2"/>
  <rect x="250" y="150" width="15" height="20" fill="#FFA500" rx="2"/>
  <rect x="270" y="150" width="15" height="20" fill="#8A2BE2" rx="2"/>
  <rect x="290" y="150" width="15" height="20" fill="#00FA9A" rx="2"/>
  <rect x="310" y="150" width="15" height="20" fill="#FFC0CB" rx="2"/>
  
  <rect x="70" y="180" width="15" height="20" fill="#8B0000" rx="2"/>
  <rect x="90" y="180" width="15" height="20" fill="#0000CD" rx="2"/>
  <rect x="110" y="180" width="15" height="20" fill="#006400" rx="2"/>
  <rect x="130" y="180" width="15" height="20" fill="#B22222" rx="2"/>
  <rect x="150" y="180" width="15" height="20" fill="#8B4513" rx="2"/>
  <rect x="170" y="180" width="15" height="20" fill="#483D8B" rx="2"/>
  <rect x="190" y="180" width="15" height="20" fill="#2E8B57" rx="2"/>
  <rect x="210" y="180" width="15" height="20" fill="#C71585" rx="2"/>
  <rect x="230" y="180" width="15" height="20" fill="#00BFFF" rx="2"/>
  <rect x="250" y="180" width="15" height="20" fill="#FF7F50" rx="2"/>
  <rect x="270" y="180" width="15" height="20" fill="#9932CC" rx="2"/>
  <rect x="290" y="180" width="15" height="20" fill="#00CED1" rx="2"/>
  <rect x="310" y="180" width="15" height="20" fill="#FF1493" rx="2"/>
  
  <rect x="70" y="210" width="15" height="20" fill="#A52A2A" rx="2"/>
  <rect x="90" y="210" width="15" height="20" fill="#0000FF" rx="2"/>
  <rect x="110" y="210" width="15" height="20" fill="#008000" rx="2"/>
  <rect x="130" y="210" width="15" height="20" fill="#DC143C" rx="2"/>
  <rect x="150" y="210" width="15" height="20" fill="#A0522D" rx="2"/>
  <rect x="170" y="210" width="15" height="20" fill="#4B0082" rx="2"/>
  <rect x="190" y="210" width="15" height="20" fill="#228B22" rx="2"/>
  <rect x="210" y="210" width="15" height="20" fill="#FF69B4" rx="2"/>
  <rect x="230" y="210" width="15" height="20" fill="#1E90FF" rx="2"/>
  <rect x="250" y="210" width="15" height="20" fill="#FF4500" rx="2"/>
  <rect x="270" y="210" width="15" height="20" fill="#8A2BE2" rx="2"/>
  <rect x="290" y="210" width="15" height="20" fill="#00FA9A" rx="2"/>
  <rect x="310" y="210" width="15" height="20" fill="#FFB6C1" rx="2"/>
  
  <rect x="70" y="240" width="15" height="20" fill="#800000" rx="2"/>
  <rect x="90" y="240" width="15" height="20" fill="#000080" rx="2"/>
  <rect x="110" y="240" width="15" height="20" fill="#006400" rx="2"/>
  <rect x="130" y="240" width="15" height="20" fill="#B22222" rx="2"/>
  <rect x="150" y="240" width="15" height="20" fill="#654321" rx="2"/>
  <rect x="170" y="240" width="15" height="20" fill="#2F4F4F" rx="2"/>
  <rect x="190" y="240" width="15" height="20" fill="#2E8B57" rx="2"/>
  <rect x="210" y="240" width="15" height="20" fill="#C71585" rx="2"/>
  <rect x="230" y="240" width="15" height="20" fill="#4682B4" rx="2"/>
  <rect x="250" y="240" width="15" height="20" fill="#CD853F" rx="2"/>
  <rect x="270" y="240" width="15" height="20" fill="#6A5ACD" rx="2"/>
  <rect x="290" y="240" width="15" height="20" fill="#20B2AA" rx="2"/>
  <rect x="310" y="240" width="15" height="20" fill="#FF69B4" rx="2"/>
  
  <!-- God rays -->
  <circle cx="200" cy="50" r="80" fill="url(#godRayGradient)"/>
  <circle cx="150" cy="80" r="60" fill="url(#godRayGradient)"/>
  <circle cx="250" cy="80" r="60" fill="url(#godRayGradient)"/>
  
  <!-- Dust particles -->
  <circle cx="100" cy="80" r="1" fill="#ffffff" opacity="0.3"/>
  <circle cx="300" cy="120" r="1.5" fill="#ffffff" opacity="0.4"/>
  <circle cx="150" cy="60" r="1" fill="#ffffff" opacity="0.5"/>
  <circle cx="250" cy="90" r="2" fill="#ffffff" opacity="0.3"/>
  <circle cx="80" cy="150" r="1.5" fill="#ffffff" opacity="0.4"/>
  <circle cx="320" cy="180" r="1" fill="#ffffff" opacity="0.5"/>
  <circle cx="120" cy="40" r="1" fill="#ffffff" opacity="0.3"/>
  <circle cx="280" cy="70" r="1.5" fill="#ffffff" opacity="0.4"/>
  <circle cx="180" cy="30" r="1" fill="#ffffff" opacity="0.5"/>
  <circle cx="220" cy="110" r="2" fill="#ffffff" opacity="0.3"/>
</svg>
